<svg xmlns="http://www.w3.org/2000/svg" viewBox="0 0 32 32" width="32" height="32">
  <defs>
    <linearGradient id="aiGradient" x1="0%" y1="0%" x2="100%" y2="100%">
      <stop offset="0%" style="stop-color:#2563eb;stop-opacity:1" />
      <stop offset="100%" style="stop-color:#1d4ed8;stop-opacity:1" />
    </linearGradient>
  </defs>
  
  <!-- Background circle -->
  <circle cx="16" cy="16" r="15" fill="url(#aiGradient)" stroke="#1e3a8a" stroke-width="2"/>
  
  <!-- AI Brain/Circuit pattern -->
  <g fill="white" opacity="0.9">
    <!-- Central node -->
    <circle cx="16" cy="16" r="2.5"/>
    
    <!-- Neural connections -->
    <circle cx="10" cy="10" r="1.5"/>
    <circle cx="22" cy="10" r="1.5"/>
    <circle cx="10" cy="22" r="1.5"/>
    <circle cx="22" cy="22" r="1.5"/>
    
    <!-- Connection lines -->
    <line x1="16" y1="16" x2="10" y2="10" stroke="white" stroke-width="1.5" opacity="0.7"/>
    <line x1="16" y1="16" x2="22" y2="10" stroke="white" stroke-width="1.5" opacity="0.7"/>
    <line x1="16" y1="16" x2="10" y2="22" stroke="white" stroke-width="1.5" opacity="0.7"/>
    <line x1="16" y1="16" x2="22" y2="22" stroke="white" stroke-width="1.5" opacity="0.7"/>
    
    <!-- Adventure compass points -->
    <polygon points="16,6 17,9 16,12 15,9" fill="white" opacity="0.8"/>
    <polygon points="26,16 23,15 20,16 23,17" fill="white" opacity="0.8"/>
    <polygon points="16,26 15,23 16,20 17,23" fill="white" opacity="0.8"/>
    <polygon points="6,16 9,17 12,16 9,15" fill="white" opacity="0.8"/>
  </g>
</svg>